<!-- Created with Inkscape (http://www.inkscape.org/) --><svg xmlns:rdf="http://www.w3.org/1999/02/22-rdf-syntax-ns#" width="1921" xmlns:svg="http://www.w3.org/2000/svg" id="svg2" height="960.5" xmlns:dc="http://purl.org/dc/elements/1.1/" xmlns:cc="http://creativecommons.org/ns#" xmlns="http://www.w3.org/2000/svg" version="1.1">
  <metadata id="metadata3033">
    <rdf:RDF>
      <cc:Work rdf:about="">
        <dc:format>image/svg+xml</dc:format>
        <dc:type rdf:resource="http://purl.org/dc/dcmitype/StillImage"/>
        <dc:title/>
      </cc:Work>
    </rdf:RDF>
  </metadata>
  <defs id="defs3031"/>
  <rect x="847.5" width="226" id="rect3011" y="1.9776196e-006" height="847.5" style="fill:#ffa500;fill-opacity:0.25"/>
  <rect x="847.5" width="226" id="rect3013" y="282.5" height="565" style="fill:#ffa500;fill-opacity:0.25"/>
  <rect x="847.5" width="226" id="rect3015" y="565" height="282.5" style="fill:#ffa500;fill-opacity:0.25"/>
  <rect x="0" width="847.5" id="rect3016" y="847.5" height="113" style="fill:#ffa500;fill-opacity:0.25"/>
  <rect x="282.5" width="565" id="rect3017" y="847.5" height="113" style="fill:#ffa500;fill-opacity:0.25"/>
  <rect x="565" width="282.5" id="rect3018" y="847.5" height="113" style="fill:#ffa500;fill-opacity:0.25"/>
  <rect x="1073.5" width="847.5" id="rect3016" y="847.5" height="113" style="fill:#ffa500;fill-opacity:0.25"/>
  <rect x="1073.5" width="565" id="rect3017" y="847.5" height="113" style="fill:#ffa500;fill-opacity:0.25"/>
  <rect x="1073.5" width="282.5" id="rect3018" y="847.5" height="113" style="fill:#ffa500;fill-opacity:0.25"/>
	 
  <path style="fill:#ffa500;fill-opacity:0.25" id="path3017" d="M 0,847.5 A 847.5,847.5 0 0 1 847.5,0 V 847.5 z"/>
  <path style="fill:#ffa500;fill-opacity:0.25" id="path3019" d="M 282.5,847.5 A 565,565 0 0 1 847.5,282.5 v 565 z"/>
  <path style="fill:#ffa500;fill-opacity:0.25" id="path3021" d="M 565,847.5 A 282.5,282.5 0 0 1 847.5,565 v 282.5 z"/>
  <path style="fill:#ffa500;fill-opacity:0.25" id="path3023" d="M 1073.5,847.5 v -847.5 A 847.5,847.5 0 0 1 1921,847.5 z"/>
  <path style="fill:#ffa500;fill-opacity:0.25" id="path3025" d="M 1073.5,847.5 v -565 A 565,565 0 0 1 1638.5,847.5 z"/>
  <path style="fill:#ffa500;fill-opacity:0.25" id="path3027" d="M 1073.5,847.5 v -282.5 A 282.5,282.5 0 0 1 1356,847.5 z"/>
</svg>